<?xml version="1.0" encoding="UTF-8" standalone="no"?>
<!--
  ~ Copyright 2017 Nitrite author or authors.
  ~
  ~ Licensed under the Apache License, Version 2.0 (the "License");
  ~ you may not use this file except in compliance with the License.
  ~ You may obtain a copy of the License at
  ~
  ~        http://www.apache.org/licenses/LICENSE-2.0
  ~
  ~ Unless required by applicable law or agreed to in writing, software
  ~ distributed under the License is distributed on an "AS IS" BASIS,
  ~ WITHOUT WARRANTIES OR CONDITIONS OF ANY KIND, either express or implied.
  ~ See the License for the specific language governing permissions and
  ~ limitations under the License.
  -->

<!-- Generator: Adobe Illustrator 19.0.0, SVG Export Plug-In . SVG Version: 6.00 Build 0)  -->

<svg
   xmlns:dc="http://purl.org/dc/elements/1.1/"
   xmlns:cc="http://creativecommons.org/ns#"
   xmlns:rdf="http://www.w3.org/1999/02/22-rdf-syntax-ns#"
   xmlns:svg="http://www.w3.org/2000/svg"
   xmlns="http://www.w3.org/2000/svg"
   xmlns:sodipodi="http://sodipodi.sourceforge.net/DTD/sodipodi-0.dtd"
   xmlns:inkscape="http://www.inkscape.org/namespaces/inkscape"
   version="1.1"
   id="Layer_1"
   x="0px"
   y="0px"
   viewBox="0 0 439.9852 158.33456"
   xml:space="preserve"
   inkscape:version="0.92.2 (5c3e80d, 2017-08-06)"
   sodipodi:docname="kno2-logo.svg"
   width="439.9852"
   height="158.33456"><metadata
     id="metadata3853"><rdf:RDF><cc:Work
         rdf:about=""><dc:format>image/svg+xml</dc:format><dc:type
           rdf:resource="http://purl.org/dc/dcmitype/StillImage" /><dc:title></dc:title></cc:Work></rdf:RDF></metadata><defs
     id="defs3851" /><sodipodi:namedview
     pagecolor="#ffffff"
     bordercolor="#666666"
     borderopacity="1"
     objecttolerance="10"
     gridtolerance="10"
     guidetolerance="10"
     inkscape:pageopacity="0"
     inkscape:pageshadow="2"
     inkscape:window-width="1920"
     inkscape:window-height="1025"
     id="namedview3849"
     showgrid="false"
     inkscape:zoom="1.2636772"
     inkscape:cx="294.29173"
     inkscape:cy="-38.581723"
     inkscape:window-x="0"
     inkscape:window-y="27"
     inkscape:window-maximized="1"
     inkscape:current-layer="g3807"
     inkscape:snap-grids="true"><inkscape:grid
       type="xygrid"
       id="grid1484"
       originx="-49.044978"
       originy="-229.68354" /></sodipodi:namedview><g
     id="g3819"
     transform="matrix(0.50472444,0,0,0.50472444,186.18097,-55.494615)" /><g
     id="g3821"
     transform="matrix(0.50472444,0,0,0.50472444,186.18097,-55.494615)" /><g
     id="g3823"
     transform="matrix(0.50472444,0,0,0.50472444,186.18097,-55.494615)" /><g
     id="g3825"
     transform="matrix(0.50472444,0,0,0.50472444,186.18097,-55.494615)" /><g
     id="g3827"
     transform="matrix(0.50472444,0,0,0.50472444,186.18097,-55.494615)" /><g
     id="g3829"
     transform="matrix(0.50472444,0,0,0.50472444,186.18097,-55.494615)" /><g
     id="g3831"
     transform="matrix(0.50472444,0,0,0.50472444,186.18097,-55.494615)" /><g
     id="g3833"
     transform="matrix(0.50472444,0,0,0.50472444,186.18097,-55.494615)" /><g
     id="g3835"
     transform="matrix(0.50472444,0,0,0.50472444,186.18097,-55.494615)" /><g
     id="g3837"
     transform="matrix(0.50472444,0,0,0.50472444,186.18097,-55.494615)" /><g
     id="g3839"
     transform="matrix(0.50472444,0,0,0.50472444,186.18097,-55.494615)" /><g
     id="g3841"
     transform="matrix(0.50472444,0,0,0.50472444,186.18097,-55.494615)" /><g
     id="g3843"
     transform="matrix(0.50472444,0,0,0.50472444,186.18097,-55.494615)" /><g
     id="g3845"
     transform="matrix(0.50472444,0,0,0.50472444,186.18097,-55.494615)" /><g
     id="g3847"
     transform="matrix(0.50472444,0,0,0.50472444,186.18097,-55.494615)" /><circle
     style="fill:#ebe9d3;stroke-width:0.50472444"
     cx="303.85394"
     cy="35.211433"
     id="circle3795"
     r="6.9217906" /><path
     style="fill:#c4d455;stroke-width:0.50472444"
     d="m 315.39043,9.83137 c -20.35554,0 -36.91706,16.56152 -36.91706,36.91706 0,20.35554 16.56152,36.91656 36.91706,36.91656 20.35553,0 36.91706,-16.56153 36.91706,-36.91707 0,-20.35553 -16.56153,-36.91655 -36.91706,-36.91655 z m -11.53649,41.53125 c -8.90485,0 -16.15117,-7.24633 -16.15117,-16.15118 0,-8.90485 7.24632,-16.15118 16.15117,-16.15118 8.90485,0 16.15118,7.24633 16.15118,16.15118 0,8.90485 -7.24633,16.15118 -16.15118,16.15118 z"
     id="path3799"
     inkscape:connector-curvature="0" /><g
     id="g3801"
     transform="matrix(0.50472444,0,0,0.50472444,186.18097,-100.91981)"><path
       style="fill:#65d3af"
       d="m 438.857,402.286 c -12.542,0 -23.911,5.089 -32.179,13.298 l -0.448,0.492 c -8.072,8.248 -13.088,19.5 -13.088,31.924 0,25.205 20.509,45.714 45.714,45.714 25.205,0 45.714,-20.509 45.714,-45.714 0.001,-25.205 -20.508,-45.714 -45.713,-45.714 z m 0,27.428 c -10.085,0 -18.286,8.201 -18.286,18.286 0,5.049 -4.094,9.143 -9.143,9.143 -5.049,0 -9.143,-4.094 -9.143,-9.143 0,-20.165 16.406,-36.571 36.571,-36.571 5.049,0 9.143,4.094 9.143,9.143 0,5.049 -4.093,9.142 -9.142,9.142 z"
       id="path3803"
       inkscape:connector-curvature="0" /><path
       style="fill:#65d3af"
       d="m 73.143,402.286 c -25.205,0 -45.714,20.509 -45.714,45.714 0,25.205 20.509,45.714 45.714,45.714 25.205,0 45.714,-20.509 45.714,-45.714 0,-25.205 -20.509,-45.714 -45.714,-45.714 z m 0,27.428 c -10.085,0 -18.286,8.201 -18.286,18.286 0,5.049 -4.094,9.143 -9.143,9.143 -5.049,0 -9.143,-4.094 -9.143,-9.143 0,-20.165 16.406,-36.571 36.571,-36.571 5.049,0 9.143,4.094 9.143,9.143 0,5.049 -4.093,9.142 -9.142,9.142 z"
       id="path3805"
       inkscape:connector-curvature="0" /></g><g
     id="g3807"
     transform="translate(-49.044978,-213.98188)"><path
       style="fill:#314e55;stroke-width:0.50472444"
       d="m 352.89892,233.04214 c -8.90485,0 -16.15117,7.24633 -16.15117,16.15118 0,8.90485 7.24632,16.15118 16.15117,16.15118 8.90485,0 16.15118,-7.24633 16.15118,-16.15118 0,-8.90485 -7.24633,-16.15118 -16.15118,-16.15118 z m 0,23.07348 c -3.81722,0 -6.92178,-3.10507 -6.92178,-6.92179 0,-3.81724 3.10505,-6.92179 6.92178,-6.92179 3.81673,0 6.92179,3.10506 6.92179,6.92179 0,3.81672 -3.10506,6.92179 -6.92179,6.92179 z"
       id="path3809"
       inkscape:connector-curvature="0" /><g
       id="g3882"
       transform="matrix(0.50472444,0,0,0.50472444,235.22595,113.06207)"><path
         sodipodi:nodetypes="sccsccsccssssccsccssssssssssssssssccscs"
         inkscape:connector-curvature="0"
         id="path3811"
         d="m 438.857,384 c -15.233,0 -29.225,5.368 -40.226,14.288 L 334.21,339.681 c 8.332,-13.78 13.218,-29.865 13.218,-47.11 0,-47.329 -36.148,-86.363 -82.286,-90.965 8.03998,0.47838 -13.17148,-1.30467 -18.285,0 -46.138,4.603 -82.286,43.636 -82.286,90.965 0,17.239 4.883,33.321 13.211,47.098 L 113.905,398.7 C 102.827,389.525 88.619,384 73.143,384 c -35.29,0 -64,28.71 -64,64 0,35.29 28.71,64 64,64 35.29,0 64,-28.71 64,-64 0,-13.234 -4.038,-25.544 -10.947,-35.76 l 62.619,-57.87 C 205.536,372.534 229.424,384 256,384 c 26.576,0 50.465,-11.467 67.185,-29.631 l 63.02,57.334 c -7.14,10.324 -11.348,22.822 -11.348,36.297 0,35.29 28.71,64 64,64 35.29,0 64,-28.71 64,-64 0,-35.29 -28.71,-64 -64,-64 z M 73.143,493.714 c -25.205,0 -45.714,-20.509 -45.714,-45.714 0,-25.205 20.509,-45.714 45.714,-45.714 25.205,0 45.714,20.509 45.714,45.714 0,25.205 -20.509,45.714 -45.714,45.714 z M 256,365.714 c -40.33,0 -73.143,-32.813 -73.143,-73.143 0,-40.33 32.813,-73.142 73.143,-73.142 40.33,0 73.143,32.813 73.143,73.143 0,40.33 -32.813,73.142 -73.143,73.142 z m 182.857,128 c -25.205,0 -45.714,-20.509 -45.714,-45.714 0,-12.424 5.016,-23.676 13.088,-31.924 l 0.448,-0.492 c 8.269,-8.209 19.637,-13.298 32.179,-13.298 25.205,0 45.714,20.509 45.714,45.714 -10e-4,25.205 -20.51,45.714 -45.715,45.714 z"
         style="fill:#314e55" /></g><path
       style="fill:#314e55;stroke-width:0.50472444"
       d="m 456.72781,320.72034 c -10.17777,0 -18.45828,8.28051 -18.45828,18.45828 0,2.54836 2.06634,4.6147 4.6147,4.6147 2.54835,0 4.6147,-2.06634 4.6147,-4.6147 0,-5.09014 4.13924,-9.22939 9.22939,-9.22939 2.54835,0 4.61469,-2.06634 4.61469,-4.6147 0,-2.54835 -2.06685,-4.61419 -4.6152,-4.61419 z"
       id="path3813"
       inkscape:connector-curvature="0" /><path
       style="fill:#314e55;stroke-width:0.50472444"
       d="m 272.14301,320.72034 c -10.17777,0 -18.45828,8.28051 -18.45828,18.45828 0,2.54836 2.06634,4.6147 4.6147,4.6147 2.54835,0 4.61469,-2.06634 4.61469,-4.6147 0,-5.09014 4.13924,-9.22939 9.22939,-9.22939 2.54835,0 4.6147,-2.06634 4.6147,-4.6147 0,-2.54835 -2.06684,-4.61419 -4.6152,-4.61419 z"
       id="path3815"
       inkscape:connector-curvature="0" /><path
       inkscape:connector-curvature="0"
       style="fill:#4971a9;stroke-width:0.60250461"
       d="m 49.044978,346.26354 v 0.57543 c 0,14.10646 11.371069,25.47748 25.47751,25.47748 C 88.628327,372.31645 100,360.94543 100,346.83897 v -28.06826 l -50.955022,27.49228 z m 154.044162,0.14406 c -0.43139,-5.47014 -2.73477,-10.50768 -6.62152,-14.39383 v -0.14462 l -45.77228,-40.44673 -44.47809,23.89412 57.43254,51.09841 c 4.31815,3.74277 9.78769,5.75751 15.54522,5.75751 0.71999,0 1.43998,0 2.01538,-0.14338 6.33353,-0.57597 12.09107,-3.59877 16.12122,-8.34889 4.31815,-4.75017 6.18953,-10.93966 5.75753,-17.27259 z M 100,242.77016 v -3.3108 c 0,-14.10523 -11.51507,-25.47687 -25.477512,-25.47687 -14.106441,0 -25.47751,11.37109 -25.47751,25.47632 v 31.23561 L 100,242.76954 Z"
       id="path890" /><path
       inkscape:connector-curvature="0"
       style="fill:#f58a1f;stroke-width:0.60250461"
       d="M 49.044978,281.63408 168.08362,216.71726 c 3.45477,-1.87136 7.34092,-2.73538 11.22767,-2.73538 2.44678,0 4.89355,0.43198 7.34093,1.152 12.52244,4.03077 19.28797,17.41659 15.25722,29.93962 -1.72678,5.18154 -5.03755,9.64372 -9.64369,12.66647 v 0.14461 l -1.43999,0.86341 -141.780782,76.57527 z"
       id="path892" /></g></svg>